<svg id="Layer_1" data-name="Layer 1" xmlns="http://www.w3.org/2000/svg" viewBox="0 0 432 432"><defs><style>.cls-1{fill:#fff;}.cls-2{fill:#231f20;}</style></defs><title>logo-circle-frame</title><circle class="cls-1" cx="216" cy="216" r="172"/><path class="cls-2" d="M216,52a164,164,0,1,1-116,48A163,163,0,0,1,216,52m0-16A180,180,0,1,0,396,216,180,180,0,0,0,216,36Z"/><path d="M271,123.65H216l17.55,67.18h55Zm-24.73,50.73-9-34.28h21l9,34.28Z"/><path d="M301.69,241.17h-55L260,291.83H171.94L216,123.65H161l-48.26,184.7H319.24ZM154.92,291.9H134.05l39.67-151.8h21Zm122.11,0-9-34.28h21l9,34.28Z"/></svg>